<svg width="820" height="211" viewBox="0 0 820 211" fill="none" xmlns="http://www.w3.org/2000/svg">
<path d="M370.658 166.18H396.012L427.793 68.8715V166.18H451.54V36.733H414.045L383.513 137.612L352.089 36.733H314.951V166.18H338.698V68.8715L370.658 166.18ZM471.632 197.425H481.988C505.913 197.425 510.912 193.14 522.161 163.323L557.335 70.1213H532.338L510.02 139.398L488.237 70.1213H461.276L498.057 165.823L496.986 168.501C492.879 178.678 489.13 178.499 480.916 178.499H471.632V197.425ZM591.067 168.501C605.53 168.501 615.707 164.216 622.492 154.217C622.849 158.859 623.384 163.144 624.099 166.18H646.774C644.989 158.145 643.917 149.575 643.917 134.398C643.917 125.649 644.274 112.973 644.274 109.937C644.274 77.4418 625.706 67.6217 602.851 67.6217C578.212 67.6217 562.5 81.5484 560.714 100.474H583.747C584.283 89.9401 592.139 84.9408 601.602 84.9408C611.6 84.9408 619.635 90.1186 619.635 104.938V106.545C581.961 110.83 556.429 117.615 556.429 140.29C556.429 157.788 572.677 168.501 591.067 168.501ZM620.349 122.257V129.399C620.349 143.326 613.743 151.717 598.388 151.717C587.318 151.717 581.783 146.004 581.783 139.041C581.783 128.328 592.853 125.114 620.349 122.257ZM750.503 70.1213H726.042V82.6196C721.757 74.2279 710.687 67.9788 698.546 67.9788C674.442 67.9788 656.766 87.9761 656.766 115.294C656.766 143.326 674.799 162.787 698.546 162.787C708.544 162.787 719.793 158.859 726.042 148.325V161.18C726.042 175.643 717.472 181.713 704.616 181.713C693.368 181.713 686.94 177.964 684.798 169.929H661.408C664.622 192.426 682.834 199.747 703.367 199.747C732.827 199.747 750.503 187.962 750.503 156.538V70.1213ZM726.935 115.294C726.935 132.256 718.543 144.04 704.795 144.04C692.118 144.04 682.655 131.363 682.655 115.472C682.655 99.4031 692.118 86.7262 704.795 86.7262C718.543 86.7262 726.935 98.5103 726.935 115.294ZM791.254 36.733H766.614V59.5871H791.254V36.733ZM791.254 70.1213H766.614V166.18H791.254V70.1213Z" fill="url(#paint0_linear)"/>
<path d="M370.658 166.18H396.012L427.793 68.8715V166.18H451.54V36.733H414.045L383.513 137.612L352.089 36.733H314.951V166.18H338.698V68.8715L370.658 166.18ZM471.632 197.425H481.988C505.913 197.425 510.912 193.14 522.161 163.323L557.335 70.1213H532.338L510.02 139.398L488.237 70.1213H461.276L498.057 165.823L496.986 168.501C492.879 178.678 489.13 178.499 480.916 178.499H471.632V197.425ZM591.067 168.501C605.53 168.501 615.707 164.216 622.492 154.217C622.849 158.859 623.384 163.144 624.099 166.18H646.774C644.989 158.145 643.917 149.575 643.917 134.398C643.917 125.649 644.274 112.973 644.274 109.937C644.274 77.4418 625.706 67.6217 602.851 67.6217C578.212 67.6217 562.5 81.5484 560.714 100.474H583.747C584.283 89.9401 592.139 84.9408 601.602 84.9408C611.6 84.9408 619.635 90.1186 619.635 104.938V106.545C581.961 110.83 556.429 117.615 556.429 140.29C556.429 157.788 572.677 168.501 591.067 168.501ZM620.349 122.257V129.399C620.349 143.326 613.743 151.717 598.388 151.717C587.318 151.717 581.783 146.004 581.783 139.041C581.783 128.328 592.853 125.114 620.349 122.257ZM750.503 70.1213H726.042V82.6196C721.757 74.2279 710.687 67.9788 698.546 67.9788C674.442 67.9788 656.766 87.9761 656.766 115.294C656.766 143.326 674.799 162.787 698.546 162.787C708.544 162.787 719.793 158.859 726.042 148.325V161.18C726.042 175.643 717.472 181.713 704.616 181.713C693.368 181.713 686.94 177.964 684.798 169.929H661.408C664.622 192.426 682.834 199.747 703.367 199.747C732.827 199.747 750.503 187.962 750.503 156.538V70.1213ZM726.935 115.294C726.935 132.256 718.543 144.04 704.795 144.04C692.118 144.04 682.655 131.363 682.655 115.472C682.655 99.4031 692.118 86.7262 704.795 86.7262C718.543 86.7262 726.935 98.5103 726.935 115.294ZM791.254 36.733H766.614V59.5871H791.254V36.733ZM791.254 70.1213H766.614V166.18H791.254V70.1213Z" fill="black"/>
<path d="M221.534 210.529H194.053C181.987 210.529 170.536 205.215 162.748 195.989L111.374 135.158L59.4601 196.126C51.6808 205.266 40.2728 210.529 28.2744 210.529H0.734375V0H28.6252C40.6922 0 52.1429 5.31459 59.9308 14.5402L111.502 75.6194L163.621 14.4119C171.4 5.26324 182.808 0 194.815 0H221.534V210.529ZM39.2459 55.4052V154.833C39.2459 156.759 41.6507 157.649 42.9002 156.177L85.0574 106.668C85.7164 105.898 85.7164 104.76 85.066 103.99L42.9002 54.0701C41.6592 52.5896 39.2459 53.4711 39.2459 55.4052ZM137.818 106.78L179.368 155.98C180.617 157.452 183.022 156.571 183.022 154.645V56.6547C183.022 54.7291 180.617 53.8391 179.368 55.3111L137.818 104.101C137.168 104.871 137.168 106.009 137.818 106.78Z" fill="black"/>
<defs>
<linearGradient id="paint0_linear" x1="303.346" y1="48.6206" x2="811.617" y2="226.944" gradientUnits="userSpaceOnUse">
<stop stop-color="white"/>
<stop offset="1" stop-color="#DEDEDE"/>
</linearGradient>
</defs>
</svg>
